<?xml version="1.0" encoding="UTF-8"?>
<svg id="Layer_1" xmlns="http://www.w3.org/2000/svg" version="1.1" viewBox="0 0 1500 357.02">
  <!-- Generator: Adobe Illustrator 30.0.0, SVG Export Plug-In . SVG Version: 2.1.1 Build 123)  -->
  <defs>
    <style>
      .st0 {
        fill: #2b74ff;
      }

      .st1 {
        fill: #fff;
      }
    </style>
  </defs>
  <g>
    <path class="st1" d="M97.06,197.01l36.22-49.83h48.67c11.59,0,25.21,0,34.48.58-5.22-6.95-13.33-18.83-19.7-28.1l-34.77-51.28-90.97,128.64H0L124.29,21.73C132.4,10.43,144.28,0,163.12,0s29.84,9.56,38.24,21.73l121.11,175.29H97.06Z"/>
    <path class="st1" d="M583.53,147.18l-38.54,49.83h-186.58V3.19h224.54l-38.82,50.41h-125.45v23.18h153.56l-34.48,44.04h-119.08v26.37h164.86Z"/>
    <path class="st1" d="M895.88,99.95c0,69.25-47.52,100.25-141.68,100.25s-141.68-31-141.68-100.25S659.75,0,754.2,0s141.68,30.71,141.68,99.95ZM836.19,99.95c0-41.72-21.73-49.54-81.99-49.54s-81.99,7.82-81.99,49.54,21.73,49.83,81.99,49.83,81.99-8.11,81.99-49.83Z"/>
    <path class="st1" d="M1113.2,189.77l-118.79-106.62v113.86h-54.47V36.22C939.94,10.43,955.58,0,972.68,0c7.24,0,14.49,1.74,24.05,10.43l118.79,106.62V3.19h54.76v160.51c0,25.78-15.65,36.5-33.03,36.5-7.54,0-14.78-1.74-24.05-10.43Z"/>
    <path class="st1" d="M1495.37,3.19l-61.13,55.92c-26.94,24.34-35.93,32.16-43.17,37.66,6.95,4.63,15.64,12.75,46.94,42.01l62,58.24h-84.6l-66.06-64.03-68.09,64.03h-74.46l63.16-58.24c29.55-27.24,37.95-34.19,45.2-39.69-7.24-5.22-14.78-11.88-45.2-40.27l-59.39-55.63h83.15l61.71,60.26,62.29-60.26h77.65Z"/>
  </g>
  <g>
    <path class="st0" d="M142.07,268.06h18.04l25.81,69.04,26.06-69.04h17.29l-35.08,87.71h-17.42l-34.71-87.71Z"/>
    <path class="st0" d="M315.61,268.06h64.28v14.66h-47.49v21.68h42.6v14.66h-42.6v22.05h48.99v14.66h-65.78v-87.71Z"/>
    <path class="st0" d="M534.75,268.06h16.29v87.71h-15.91l-45.11-60.39v60.39h-16.41v-87.71h15.91l45.23,60.52v-60.52Z"/>
    <path class="st0" d="M638,268.06h71.54v14.91h-27.31v72.8h-16.92v-72.8h-27.31v-14.91Z"/>
    <path class="st0" d="M817.67,335.97c3.93,3.93,9.19,5.89,15.79,5.89s11.79-1.96,15.6-5.89c3.8-3.93,5.7-9.36,5.7-16.29v-51.62h16.79v51.62c0,7.6-1.55,14.22-4.64,19.86-3.09,5.64-7.5,9.96-13.22,12.97-5.72,3.01-12.47,4.51-20.24,4.51s-14.68-1.5-20.49-4.51c-5.81-3.01-10.25-7.33-13.34-12.97-3.09-5.64-4.64-12.26-4.64-19.86v-51.62h16.79v51.62c0,6.93,1.96,12.36,5.89,16.29Z"/>
    <path class="st0" d="M1021.4,355.77l-15.16-25.94c-.67.08-1.71.12-3.14.12h-19.8v25.81h-16.79v-87.71h36.59c11.36,0,20.13,2.63,26.31,7.89,6.18,5.26,9.27,12.7,9.27,22.3,0,6.85-1.48,12.7-4.45,17.54-2.96,4.84-7.29,8.48-12.97,10.9l19.29,29.07h-19.17ZM983.31,315.17h19.8c6.35,0,11.19-1.38,14.54-4.13,3.34-2.76,5.01-6.85,5.01-12.28s-1.67-9.36-5.01-12.03c-3.34-2.67-8.19-4.01-14.54-4.01h-19.8v32.45Z"/>
    <path class="st0" d="M1132.29,268.06h64.28v14.66h-47.49v21.68h42.6v14.66h-42.6v22.05h48.99v14.66h-65.78v-87.71Z"/>
    <path class="st0" d="M1331.57,284.22c-4.72-1.5-8.88-2.26-12.47-2.26-4.01,0-7.19.75-9.52,2.26-2.34,1.5-3.51,3.59-3.51,6.27,0,2.42.81,4.45,2.44,6.08,1.63,1.63,3.68,2.96,6.14,4.01,2.47,1.05,5.83,2.19,10.09,3.44,5.93,1.75,10.79,3.51,14.6,5.26,3.8,1.75,7.04,4.34,9.71,7.77,2.67,3.43,4.01,7.94,4.01,13.53s-1.44,10.01-4.32,13.97c-2.88,3.97-6.85,7-11.9,9.08-5.05,2.09-10.84,3.13-17.35,3.13-6.85,0-13.53-1.27-20.05-3.82-6.51-2.55-12.2-5.95-17.04-10.21l7.02-14.28c4.43,4.09,9.4,7.31,14.91,9.65,5.51,2.34,10.65,3.51,15.41,3.51s8.35-.9,11.02-2.69c2.67-1.79,4.01-4.24,4.01-7.33,0-2.51-.82-4.57-2.44-6.2-1.63-1.63-3.7-2.94-6.2-3.95-2.51-1-5.93-2.13-10.27-3.38-5.93-1.75-10.78-3.46-14.54-5.14-3.76-1.67-6.97-4.2-9.65-7.58-2.67-3.38-4.01-7.83-4.01-13.34,0-5.1,1.36-9.54,4.07-13.34,2.71-3.8,6.56-6.75,11.53-8.83,4.97-2.09,10.71-3.13,17.23-3.13,5.68,0,11.3.84,16.85,2.51,5.55,1.67,10.51,3.93,14.85,6.77l-6.77,14.66c-4.51-2.76-9.13-4.89-13.85-6.39Z"/>
  </g>
</svg>