<?xml version="1.0" encoding="UTF-8"?>
<svg id="Layer_1" xmlns="http://www.w3.org/2000/svg" version="1.1" xmlns:xlink="http://www.w3.org/1999/xlink" viewBox="0 0 500 296.83">
  <!-- Generator: Adobe Illustrator 30.0.0, SVG Export Plug-In . SVG Version: 2.1.1 Build 123)  -->
  <defs>
    <style>
      .st0 {
        fill: url(#linear-gradient);
      }
    </style>
    <linearGradient id="linear-gradient" x1="0" y1="356.42" x2="500" y2="356.42" gradientTransform="translate(0 504.83) scale(1 -1)" gradientUnits="userSpaceOnUse">
      <stop offset="0" stop-color="#3f5db2"/>
      <stop offset="1" stop-color="#7140ea"/>
      <stop offset="1" stop-color="#fff"/>
    </linearGradient>
  </defs>
  <path class="st0" d="M92.1,296.83c2.96-5.66,7.01-11.19,10.71-16.34,43.46-60.43,86.31-121.33,130.25-181.38l42.97,51.13-124.66,146.59h96.83c.83-1.93,2.4-3.8,3.65-5.33,20.45-24.67,41.28-49.52,62.38-73.63,1.79-2.05,9.43-11.16,11.17-11.17l76.11,90.13h97.94l-125.71-147.6c-.24-1.37,7.04-9.76,8.51-11.54,37.48-45.47,78.14-88.71,115.2-134.5.83-1.03,1.94-2.19,2.56-3.19h-150.2c.42.77,1.01,1.47,1.53,2.19,3.16,4.36,26.07,28.42,26.07,30.46l-53.47,61.41c-2.08-3.97-5.34-8.15-8.17-11.65C293.48,54.83,270.7,27.63,248.46,0h-31.75L0,296.82h92.1,0Z"/>
</svg>