<?xml version="1.0" encoding="UTF-8"?>
<svg id="Layer_1" xmlns="http://www.w3.org/2000/svg" version="1.1" viewBox="0 0 500 500">
  <!-- Generator: Adobe Illustrator 30.0.0, SVG Export Plug-In . SVG Version: 2.1.1 Build 123)  -->
  <defs>
    <style>
      .st0 {
        fill: #f7f5f5;
      }
    </style>
  </defs>
  <path class="st0" d="M303.81,189.86c-4.68,5.06-3.04,13.18.5,18.48,9.41,14.12,32.2,29.09,43.17,43.23,1.15,1.3.68,2.09,0,3.42-1.04,2.01-17.24,17.43-18.85,17.15-11.25-6.97-27.84-38.59-42.66-25.03-15.88,14.53,17.21,32.35,24.18,43.52.53,2.96-15.24,16.27-18.23,19.49-3.57.63-41.32-41.51-48.31-46.25l-6.54-1.93c-38.49,13.77,26.26,49.61,34.48,65.58.85,1.66.85,1.76,0,3.42-1.04,2.01-17.24,17.43-18.85,17.15-11.01-7.38-27.44-37.03-42.66-25.03-17.13,13.51,17.75,32.76,24.17,43.52.43,2.45-16.03,18.4-19.72,19.67-4.61,0-40.29-40.4-47.49-45.76-13.2-4.93-23.74,5.81-17.01,18.73l46.34,46.81-19.82,19.82c-10.68-7.59-25.93-34.58-40.52-28.41-23.41,9.9,15.29,37.98,22.37,46.56-14.84,15.31-31.58,36.35-55.12,22.36l-70.59-70.94c-6.66-11.94-4.17-24.72,4.21-34.97L357.68,39.23c12.11-11.09,26.69-14.63,40.65-4.32,9.05,6.68,62.54,59.87,68.05,68.3,14.65,22.44-7.63,41.04-22.36,55.12l-46.81-46.34c-12.9-7.28-25.44,6.48-16.96,18.68l45.63,45.81-19.82,19.82c-10.56-7.43-31.01-42.11-45.01-24.27-12.06,15.38,20.09,29.84,25.22,42.42,0,3.81-15.07,15.98-18.42,19.72l-48.31-46.25c-3.55-3.49-12.95-1.06-15.72,1.93h-.01Z"/>
  <path class="st0" d="M427,348.33c3.36-.59,34.15,32.62,37.18,38.4,28.46,54.27-36.44,109.24-84.73,72.65-3.99-3.02-31.48-30.19-31.09-32.41l78.64-78.64h0Z"/>
  <rect class="st0" x="288.38" y="310.95" width="113.72" height="68.49" transform="translate(-142.97 345.31) rotate(-45.01)"/>
  <g>
    <path class="st0" d="M31.79,29.07c4.77-1.5,87.6,21.17,96.71,25.42,13.23,6.16,23.61,16.63,33.21,27.31l-78.64,79.89c-10.75-7.44-21.58-19.22-27.45-30.87-7.58-15.04-24.47-77.49-26.32-94.62-.3-2.75-1.1-6.01,2.49-7.13Z"/>
    <rect class="st0" x="103.08" y="132.1" width="114.89" height="55.14" transform="translate(-65.88 160.27) rotate(-45)"/>
  </g>
</svg>