<?xml version="1.0" encoding="UTF-8"?>
<svg id="Layer_1" xmlns="http://www.w3.org/2000/svg" version="1.1" viewBox="0 0 500 500">
  <!-- Generator: Adobe Illustrator 30.0.0, SVG Export Plug-In . SVG Version: 2.1.1 Build 123)  -->
  <defs>
    <style>
      .st0 {
        fill: #f7f5f5;
      }
    </style>
  </defs>
  <path class="st0" d="M298.74,367.77c5.66,6.57-10.64,41.62-16.21,45.3-4.38,2.89-18.74-1.89-28.56,1.13-10.69,3.3-26.87,22.52-27.74,34.03-.64,8.47,7.8,13.57-1.63,20.04-2.34,1.61-35.24,13.83-37.21,13.63-7.02-.71-7.6-8.28-11.17-12.45-11.33-13.21-38.26-14.14-52.35-4.61-6.51,4.41-10.22,16.07-17.24,14.82-3.83-.68-34.49-14.8-36.64-17.23-5.67-6.4.88-12.87.45-20.26-.84-14.58-19.74-35.69-34.5-37.12-11.39-1.1-15.64,6.91-23.02-4.68-2.55-4-13.06-32.02-12.92-35.9.2-5.74,9.64-7.69,14.38-13.1,9.89-11.29,10.15-39.01.93-50.69-5.36-6.79-15.16-7.91-13.57-17.38.4-2.38,15.82-35.24,17.53-36.3,4.38-2.73,12.9,1.31,18.88,1.22,16.04-.26,38.22-20.9,38.57-37.1.15-7.14-5.91-13.71,2.28-19.55,3.6-2.57,34.86-13.7,38.56-13.13,5.2.81,8.68,13.81,17.53,18.37,10.44,5.38,33.65,5.54,43.79-.69,7.85-4.82,9.28-17.08,19.66-15.28,2.6.45,34.23,14.87,35.45,16.4,3.33,4.15-1.76,19.6.74,29.03,2.18,8.25,19.85,25.57,28.32,27.29,7.81,1.58,21.91-2.36,26.19,3.6,1.6,2.23,14.09,35.66,13.98,37.67-.35,6.4-19.7,11.8-21.75,29.69-1.36,11.83-1.53,27.59,7.14,36.54,3.05,3.15,8.32,4.6,10.14,6.72h-.01ZM217.57,330c0-36.58-29.65-66.23-66.23-66.23s-66.23,29.65-66.23,66.23,29.65,66.23,66.23,66.23,66.23-29.65,66.23-66.23Z"/>
  <g>
    <path class="st0" d="M489.48,330c1.6,1.56,10.73,25.96,10.51,28.19-.63,6.39-10.72,7.34-13.09,14.87-1.97,6.28-2.06,20.67,2.19,25.83,4.29,5.22,10.81,3.09,8.46,14.52-.84,4.07-9.19,21.36-12.48,23.53-5.81,3.82-18.25-6.71-29.92,9.65-7.52,10.53-2.11,16.15-4.32,21.4-1.82,4.34-23.05,14.23-27.38,14.27-8.65.09-10.14-11.54-16.3-13.34-3.51-1.03-15.68-1.07-19.41-.36-6.36,1.21-8.79,8.95-13.01,10.9-6.07,2.8-32.18-8.2-32.8-15.83-1.05-12.89,4.67-17.99-10.93-27.8-8.38-5.27-13.78-1.27-20.45-3.38-4.36-1.38-12.27-25.09-11.32-30.43s9.9-7.1,12.48-13.46c8.77-21.66-7.02-23.43-11.47-33.32-1.65-3.67,8.35-27.31,11.83-29.87,5.96-4.37,10.7.78,17.02-.68,5.89-1.36,16.17-10.45,17.48-16.47,1.81-8.31-2.99-14.46,5.65-20.17,2.96-1.96,22.35-8.83,25.49-8.34,5.37.84,7.02,9.91,13.48,12.51,5.99,2.42,18.69,2.75,24.11-.68,6.57-4.17,3.22-12.23,17.62-9.3,2.39.49,21.63,10.25,22.4,11.47,2.65,4.19-2.45,10.93-.24,17.97,1.41,4.51,13.9,16.74,18.49,17.51,5.14.86,11.19-3.77,15.9.82h.01ZM444.49,380.94c0-25.19-20.42-45.62-45.62-45.62s-45.62,20.42-45.62,45.62,20.42,45.62,45.62,45.62,45.62-20.42,45.62-45.62Z"/>
    <path class="st0" d="M325.71,22.23c7.31-6.06,33.36,6.53,34.9,12.76,2.19,8.81-6.2,12.59,6.16,25.45,10.71,11.14,25.32,4.51,28.1,8.1,1.95,2.52,9.67,23.96,9.6,27.45-.19,8.85-5.76,6.49-9.22,9.62-6.15,5.58-6.62,24.87-1.48,31.11,4.66,5.65,10.14,2.32,8.44,14.48-.49,3.47-9.33,23.05-11.49,24.4-4.93,3.07-10.99-1.68-16.43-.75-6.63,1.14-18.63,13.57-19.32,20.76-.59,6.1,4.8,11.56-3.39,16.3-2.52,1.46-23.13,8.59-25.39,8.35-6.29-.65-7.1-9.71-13.45-12.45-5.78-2.49-19.09-2.68-24.44.39s-5.43,10.92-15.24,9.7c-3.93-.49-21.81-8.86-24.31-11.68-6.05-6.83,5.85-19.37-11.98-31.67-11.59-7.99-18.39,1.97-25.28-8.5-1.51-2.29-9.19-22.38-9.05-23.96.68-7.87,16.6-8.5,15.55-28.04-.82-15.31-15.19-15.89-13.62-25.43.36-2.17,10.28-23.56,11.53-24.31,8.01-4.84,21.42,5.06,32.7-12.98,5.57-8.92.08-18.69,6.25-23.54,2.23-1.75,23.38-10.14,25.71-10.02,5.83.3,7.96,9.07,13.35,12.26,6.88,4.06,19.86,4.31,26.35-.4,2.98-2.16,3.73-5.96,5.45-7.39h0ZM349.35,119.1c0-25.24-20.46-45.7-45.7-45.7s-45.7,20.46-45.7,45.7,20.46,45.7,45.7,45.7,45.7-20.46,45.7-45.7Z"/>
  </g>
</svg>