<?xml version="1.0" encoding="UTF-8"?>
<svg id="Layer_1" xmlns="http://www.w3.org/2000/svg" version="1.1" viewBox="0 0 500 500">
  <!-- Generator: Adobe Illustrator 30.0.0, SVG Export Plug-In . SVG Version: 2.1.1 Build 123)  -->
  <defs>
    <style>
      .st0 {
        fill: #f7f5f5;
      }
    </style>
  </defs>
  <g>
    <path class="st0" d="M218.2,111.59c6.52-1.46,42.01-1.46,48.53,0,7.39,1.65,12.5,10.11,14.77,16.82-3.34,38.81,6.09,90.49.32,127.77-3.59,23.19-34.15,22.66-52.18,20.84-13.22-1.34-22.15-5.92-26.23-19.19,3.34-38.81-6.09-90.49-.32-127.77,1.08-7,7.87-16.85,15.1-18.47h.01Z"/>
    <path class="st0" d="M472.99,20.83c2.24,3.01,2.5,6.44,2.33,10.07-.59,12.78-6.37,55.86-9.89,67.29-3.46,11.26-15.32,8.61-15.81-1.81-.63-13.46,6.81-36.05,8.07-50.34l-88.15,64.85c-11.33,5.8-16.98,4.34-27.43-1.61-29.84-16.99-59.56-46.16-89.15-64.86-3.25-2.05-7.65-6.16-11.46-6.16-66.71,33.66-131.33,71.54-197.13,107.01-9.67,4.52-14.73-8.94-7.82-14.45L236.01,22.76c9.14-1.91,12.77.58,20.11,4.66,30.05,16.72,60.42,46.94,90.37,65.61,3.06,1.91,7.64,6.23,11.17,5.9l88.17-65.76c-13.2-5.87-39.09-2.96-50.87-8.35-6.7-3.06-8.44-10.27-1.09-14.19,7.86-4.19,66.35,9.23,79.12,10.19h0Z"/>
    <path class="st0" d="M115.53,151.08c6.52-1.46,42.01-1.46,48.53,0,6.08,1.36,12.79,9.52,14.3,15.32,2.65,10.16,2.61,78.05.8,89.77-2.15,13.94-13.78,19.55-26.55,20.84-16.51,1.67-46.15,2.37-51.37-17.69-2.64-10.14-2.61-78.06-.8-89.77,1.08-7,7.87-16.85,15.1-18.47h-.01Z"/>
    <path class="st0" d="M423.56,151.08c6.52-1.46,42.01-1.46,48.53,0,6.08,1.36,12.79,9.52,14.3,15.32,2.65,10.16,2.61,78.05.8,89.77-2.15,13.94-13.78,19.55-26.55,20.84-16.51,1.67-46.15,2.37-51.37-17.69-2.64-10.14-2.61-78.06-.8-89.77,1.08-7,7.87-16.85,15.1-18.47h-.01Z"/>
    <path class="st0" d="M320.88,166.88c6.52-1.46,42.01-1.46,48.53,0,5.8,1.3,11.93,8.49,13.71,13.94,2.81,8.64,3.02,64.85,1.39,75.36-2.15,13.94-13.78,19.55-26.55,20.84-16.15,1.63-44.68,2.41-50.79-16.3-2.81-8.63-3.01-64.86-1.39-75.36,1.08-7,7.87-16.85,15.1-18.47h0Z"/>
  </g>
  <g>
    <path class="st0" d="M176.32,300.73c23.3,3.14,37.16,19.13,54.43,30.48,16.73,11,67.08,2.37,89.76,5.02,22.39,2.62,21.32,30.49-.4,41.15-18.89,9.27-58.23,2.98-80.2,6.68-6.43,1.9-7.72,13.26-2.09,15.11,22.54-.91,48.36.25,70.54-1.95,18.52-1.84,21.64-10.65,36.37-14.97,16.83-4.94,95.07-18.23,110.06-16.4,31.5,3.84,32.69,49.68,2.88,58.26-54.19,16.1-108.26,43.14-161.97,59.18-63.91,19.08-121.63-5.22-180.62-28.52-4.96-1.96-10.71-3.46-14.78-6.94v-147.1c23.7,2.3,53.03-3.1,76.02,0h0Z"/>
    <path class="st0" d="M44.47,277.48c9.32-1.89,37.91-.88,40.04,10.41v157.98c-.71,4.2-6.93,7.6-10.77,8.98-26.41,9.47-57.06-5.57-60.33-34.65-2.35-20.88-2.83-90.36.48-110.11,2.22-13.25,17.52-29.96,30.58-32.6h0Z"/>
  </g>
</svg>