<?xml version="1.0" encoding="UTF-8"?>
<svg id="Layer_1" xmlns="http://www.w3.org/2000/svg" version="1.1" viewBox="0 0 500 500">
  <!-- Generator: Adobe Illustrator 30.0.0, SVG Export Plug-In . SVG Version: 2.1.1 Build 123)  -->
  <defs>
    <style>
      .st0 {
        fill: #f7f5f5;
      }
    </style>
  </defs>
  <g>
    <path class="st0" d="M178.66,182.36c7.87,10.08,4.8,23.68-7.97,26.63-16.58,3.83-74.89,2.19-92.23-1.71C-16.88,185.83-19.66,50.86,73.15,26.39,161.19,3.17,224.97,102.79,170.88,174.46c-.79,4.79,5.91,5.52,7.77,7.9h0ZM84.37,84.33c-2.6.1-7.61,3.41-8.72,5.69-1.7,3.52-2.08,43.7-1.03,49.06.84,4.25,5.31,8.84,9.75,9.01,5.87.23,49.44-24.4,48.67-32.64-.64-6.86-43.04-31.35-48.67-31.13h0Z"/>
    <path class="st0" d="M443.54,140.33c-.56,25.06-18.04,45.74-42.65,28.26-7.09-5.03-23.1-26.21-28.83-27.92-24.12-7.16-83.35,15.33-88-23.31-1.81-15.09-1.81-57.04,0-72.13,1.93-16.03,12.33-21.64,27.24-22.96,39.18-3.46,115.97-3.46,155.14,0,15.02,1.33,25.33,7,27.24,22.96,1.51,12.58,1.73,66.75-1.08,77.6-5.5,21.26-32.41,17.24-49.08,17.5h.02ZM354.01,81.28c0-6.35-5.15-11.5-11.5-11.5s-11.5,5.15-11.5,11.5,5.15,11.5,11.5,11.5,11.5-5.15,11.5-11.5ZM400.45,81.29c0-6.4-5.18-11.58-11.58-11.58s-11.58,5.18-11.58,11.58,5.18,11.58,11.58,11.58,11.58-5.18,11.58-11.58ZM446.75,81.31c0-6.35-5.15-11.5-11.5-11.5s-11.5,5.15-11.5,11.5,5.15,11.5,11.5,11.5,11.5-5.15,11.5-11.5Z"/>
  </g>
  <g>
    <path class="st0" d="M177.16,380.31c4.61,18.24,27.06,55.97,26.34,73.08-1.14,26.83-39.02,38.75-55.16,11.4-6.14-10.41-23.8-67.71-27.81-70.48-2.96-2.05-27.41,13.02-47.05-.89-6.49-4.59-12.41-17.65-14.05-18.64-.84-.5-12.27,1.66-16.53,1.24-26.86-2.65-34.37-39.54-11.88-53.46,4.98-3.08,12.45-2.98,12.93-3.45.74-.74-.32-12.44.28-16.11,1.51-9.28,7.22-18.96,15.19-24.09,14.39-9.26,55.45-15.03,75.25-22.97,51.27-20.58,65.92-58,103.76-83.94,51.95-35.61,95.81,55.4,106.19,94.33s18.54,149.5-50.02,135.14c-18.24-3.82-54.63-21.17-70.49-21.17h-46.95ZM316.09,375.19c20.5-19.71,12.42-78.46,5.7-103.49-17.89-66.62-82.63-140.19-85.7-17.97,53.88-7.89,78.01,65,28.39,87.33-2.56,3.45,30.93,54.03,51.62,34.13h-.01Z"/>
    <path class="st0" d="M392.64,238.95c16.15-3.34,26.6,3.01,36.61,14.73,26.69-35.28,74.09-6.13,53.12,33.51-4.79,9.05-40.86,46.05-49.82,48.57-7.8,2.2-20.13-9.99-26.25-15.45-8.42-7.51-26.78-26.81-30.95-36.71-6.82-16.19-1.92-40.69,17.29-44.66h0Z"/>
  </g>
</svg>