<?xml version="1.0" encoding="UTF-8"?>
<svg id="Layer_1" xmlns="http://www.w3.org/2000/svg" version="1.1" viewBox="0 0 500 500">
  <!-- Generator: Adobe Illustrator 30.0.0, SVG Export Plug-In . SVG Version: 2.1.1 Build 123)  -->
  <defs>
    <style>
      .st0 {
        fill: #f7f5f5;
      }
    </style>
  </defs>
  <path class="st0" d="M452.77,348.11c13.57,13.6,2.72,35.13-15.65,35.8-79.13-4.67-165.34,6.2-243.63.07-18.18-1.43-34.38-8.89-44.68-24.36-20.48-30.75,4.49-56.03-1.18-87.03L78.51,65.54c-11.41-22.48-52.96,3.29-67.05-19.25-8.2-13.13-.27-28.79,15.21-30.64,14.18-1.69,53-1.67,67.21,0,7.82.92,11.85,4.64,15.31,11.54,6.18,12.28,16.7,60.62,23.97,66.16,2,1.52,4.32,2.43,6.81,2.78l329.82.04c18.88,1.76,24.49,12.96,21.11,30.86-9.41,49.85-41.92,108.63-53.25,159.61-3.21,7.95-10.48,15.32-19.62,14.9l-220.52.02c-13.25.51-21.99,34.15-10.62,39.16,85.2,3.17,171.38-1.36,256.6,2.3,2.94,1.45,7,2.81,9.29,5.1h-.01Z"/>
  <circle class="st0" cx="172.14" cy="444.63" r="40.98"/>
  <circle class="st0" cx="417.61" cy="444.63" r="40.98"/>
</svg>