<?xml version="1.0" encoding="UTF-8"?>
<svg id="Layer_1" xmlns="http://www.w3.org/2000/svg" version="1.1" viewBox="0 0 500 500">
  <!-- Generator: Adobe Illustrator 30.0.0, SVG Export Plug-In . SVG Version: 2.1.1 Build 123)  -->
  <defs>
    <style>
      .st0 {
        fill: #f7f5f5;
      }
    </style>
  </defs>
  <path class="st0" d="M448.38,163.75c5.4,5.39,36.7,8.43,40.53,16.45,1.77,3.71,1.86,56.35.03,60.02-3.73,7.48-34.1,9.9-40,15.98-5.19,5.34-7.22,26.7-14.6,33.32,1.59,10.32,20.75,33.66,16.61,42.58-1.19,2.57-37.74,38.91-40.46,39.71-9.42,2.77-30.74-13.13-39.87-17.34-8.08,6.95-26.15,8.69-33.31,13.52-6.07,4.1-9.01,38.84-18.73,41.75-4.41,1.32-55.47.97-58.62-.58-6.5-3.21-10.03-32.25-15.05-38.93-3.15-4.19-13.48-5.14-18.39-7.65-1.38-.7-3.87-.19-2.5-3.4,1.08-2.54,36.76-37.86,39.41-38.65,5.02-1.5,27.52,2.28,37.29,1.38,101.74-9.37,138.33-143.79,55.06-202.51-71.12-50.15-171.47-4.89-177.74,81.83-.77,10.6,3.84,32.11.92,38.93-3.52,8.23-31.7,28.36-37.94,37.98-6.35-4.76-5.59-18.76-11.08-22.87-7.09-5.32-37.03-8.16-39.52-16.46-1.32-4.39-.96-55.49.59-58.63,3.36-6.79,34.38-10.12,40.01-15.98,1.26-1.31,14.4-31.5,14.56-33.31.74-8.61-21.16-32.73-16.57-42.6,1.19-2.57,37.74-38.91,40.46-39.71,11.29-3.31,29.46,16.3,39.87,17.21,1.79.16,31.61-12.26,33.32-13.39,6-4,9.02-38.85,18.73-41.75,4.41-1.32,55.47-.97,58.62.58,6.79,3.36,10.09,34.27,15.98,40,4.47,4.34,26.78,8.59,33.3,14.56,10.77-1.33,30.46-18.93,39.55-17.61,3.04.44,41.82,38.29,42.76,41.49,2.77,9.42-13.13,30.74-17.34,39.87,6.1,6.13,10.26,30.33,14.14,34.2h-.02Z"/>
  <path class="st0" d="M288.39,211.77c1.8,1.8,20.62,5.11,24.13,4.06,8.43-2.51,33.83-38.34,42.52-39.67,7.7-1.18,8.82,2.84,10.99,8.95,16.9,47.59-19.14,101.38-69.1,105.03-8.42.61-18.66-2.48-23.94-1.97-8.02.77-89.68,91.01-104.05,102.05-.64,9.14,1.71,17.3,1.01,26.9-2.69,36.71-34.59,69.22-71.18,72.75-11.49,1.11-51.88.04-40.84-18.86,5.35-9.16,36.3-31.59,39.02-38.78.75-2-4-22.84-6.4-24.11-1.83-.97-21.4-5.37-22.62-4.91-8.09,3.05-34.18,39.62-43,40.97-7.7,1.18-8.82-2.84-10.99-8.95-16.9-47.59,19.14-101.38,69.1-105.03,8.42-.61,18.66,2.48,23.94,1.97,8.02-.77,89.68-91.01,104.05-102.05-1.31-17.36-2.13-31.15,3.98-47.89,13.85-37.95,56.05-60.06,95.35-49.42,7.27,1.97,15.08,3,13.64,12.3-1.36,8.83-37.92,34.91-40.97,43-.51,1.36,4.5,22.8,5.36,23.66h0Z"/>
</svg>