<?xml version="1.0" encoding="UTF-8"?>
<svg id="Layer_1" xmlns="http://www.w3.org/2000/svg" version="1.1" xmlns:xlink="http://www.w3.org/1999/xlink" viewBox="0 0 2406.33 560">
  <!-- Generator: Adobe Illustrator 30.0.0, SVG Export Plug-In . SVG Version: 2.1.1 Build 123)  -->
  <defs>
    <style>
      .st0 {
        fill: #101828;
      }

      .st1 {
        fill: #6f41e8;
      }

      .st2 {
        fill: url(#linear-gradient);
      }
    </style>
    <linearGradient id="linear-gradient" x1="5.06" y1="243.71" x2="907.91" y2="243.71" gradientTransform="translate(0 521.33) scale(1 -1)" gradientUnits="userSpaceOnUse">
      <stop offset="0" stop-color="#3f5db2"/>
      <stop offset="1" stop-color="#7140ea"/>
      <stop offset="1" stop-color="#fff"/>
    </linearGradient>
  </defs>
  <path class="st2" d="M171.37,545.62c5.33-10.22,12.66-20.21,19.34-29.5,78.48-109.12,155.85-219.08,235.2-327.52l77.59,92.32-225.08,264.7h174.83c1.51-3.49,4.32-6.88,6.59-9.63,36.94-44.54,74.54-89.42,112.64-132.95,3.23-3.7,17.04-20.16,20.16-20.16l137.43,162.74h176.85l-227.01-266.52c-.44-2.48,12.7-17.62,15.37-20.85,67.68-82.1,141.11-160.19,208.01-242.86,1.51-1.86,3.5-3.96,4.61-5.75h-271.21c.76,1.39,1.82,2.65,2.76,3.94,5.7,7.88,47.07,51.3,47.08,55.01l-96.55,110.89c-3.75-7.16-9.65-14.71-14.75-21.02-40.2-49.82-81.35-98.93-121.5-148.82h-57.32L5.06,545.62h166.31Z"/>
  <g>
    <g>
      <path class="st0" d="M938.05,314.54l37.91-52.16h50.93c12.13,0,26.38,0,36.08.6-5.45-7.28-13.95-19.7-20.62-29.42l-36.38-53.67-95.22,134.62h-74.29l130.08-183.45c8.49-11.83,20.93-22.74,40.63-22.74s31.23,10,40.02,22.74l126.75,183.45h-235.91.03Z"/>
      <path class="st0" d="M1447.18,262.38l-40.33,52.16h-195.27V111.68h234.99l-40.63,52.76h-131.3v24.26h160.7l-36.08,46.08h-124.62v27.59h172.53,0Z"/>
      <path class="st0" d="M1774.08,212.96c0,72.46-49.72,104.92-148.28,104.92s-148.28-32.44-148.28-104.92,49.42-104.62,148.28-104.62,148.28,32.14,148.28,104.62ZM1711.62,212.96c0-43.67-22.74-51.85-85.81-51.85s-85.81,8.19-85.81,51.85,22.74,52.16,85.81,52.16,85.81-8.49,85.81-52.16Z"/>
      <path class="st0" d="M2001.52,306.96l-124.32-111.58v119.17h-57.01v-168.29c0-26.99,16.38-37.91,34.27-37.91,7.58,0,15.17,1.81,25.17,10.91l124.32,111.58v-119.17h57.31v167.98c0,26.99-16.38,38.21-34.57,38.21-7.89,0-15.47-1.81-25.17-10.91h0Z"/>
      <path class="st0" d="M2401.48,111.68l-63.99,58.52c-28.19,25.47-37.59,33.65-45.18,39.42,7.28,4.85,16.38,13.34,49.12,43.97l64.89,60.95h-88.54l-69.14-67.01-71.25,67.01h-77.93l66.1-60.95c30.93-28.51,39.72-35.78,47.31-41.54-7.58-5.45-15.47-12.43-47.31-42.15l-62.16-58.22h87.03l64.59,63.07,65.2-63.07h81.26,0Z"/>
    </g>
    <g>
      <path class="st1" d="M985.17,388.89h18.88l27.01,72.26,27.27-72.26h18.1l-36.71,91.8h-18.23l-36.33-91.8h.01Z"/>
      <path class="st1" d="M1166.78,388.89h67.27v15.33h-49.7v22.68h44.59v15.33h-44.59v23.08h51.28v15.35h-68.85v-91.8h0Z"/>
      <path class="st1" d="M1396.14,388.89h17.05v91.8h-16.65l-47.21-63.2v63.2h-17.17v-91.8h16.65l47.33,63.34v-63.34Z"/>
      <path class="st1" d="M1504.19,388.89h74.88v15.61h-28.59v76.19h-17.71v-76.19h-28.59v-15.61h.01Z"/>
      <path class="st1" d="M1692.23,459.96c4.11,4.11,9.62,6.17,16.52,6.17s12.34-2.05,16.32-6.17c3.98-4.11,5.96-9.8,5.96-17.05v-54.03h17.57v54.03c0,7.96-1.62,14.88-4.85,20.79-3.23,5.91-7.85,10.43-13.84,13.57-5.99,3.15-13.05,4.73-21.17,4.73s-15.36-1.58-21.45-4.73c-6.09-3.15-10.73-7.67-13.96-13.57-3.24-5.91-4.85-12.83-4.85-20.79v-54.03h17.57v54.03c0,7.25,2.05,12.94,6.17,17.05Z"/>
      <path class="st1" d="M1905.45,480.68l-15.87-27.14c-.7.08-1.79.14-3.28.14h-20.72v27.01h-17.57v-91.8h38.29c11.88,0,21.06,2.75,27.53,8.26,6.47,5.51,9.7,13.29,9.7,23.34,0,7.17-1.55,13.29-4.66,18.36-3.11,5.07-7.63,8.88-13.57,11.4l20.2,30.42h-20.06.01ZM1865.59,438.2h20.72c6.64,0,11.72-1.44,15.21-4.33,3.49-2.89,5.25-7.17,5.25-12.85s-1.74-9.8-5.25-12.59c-3.5-2.79-8.57-4.19-15.21-4.19h-20.72v33.96h0Z"/>
      <path class="st1" d="M2021.49,388.89h67.27v15.33h-49.7v22.68h44.59v15.33h-44.59v23.08h51.28v15.35h-68.85v-91.8h0Z"/>
      <path class="st1" d="M2230.06,405.8c-4.95-1.58-9.29-2.36-13.04-2.36-4.2,0-7.52.78-9.96,2.36-2.45,1.58-3.67,3.76-3.67,6.55,0,2.54.85,4.66,2.56,6.36s3.85,3.11,6.43,4.19c2.58,1.1,6.1,2.29,10.57,3.6,6.21,1.84,11.29,3.67,15.28,5.51,3.97,1.84,7.36,4.55,10.17,8.13,2.79,3.59,4.19,8.31,4.19,14.17s-1.51,10.47-4.52,14.62c-3.01,4.15-7.17,7.32-12.46,9.51-5.29,2.18-11.34,3.28-18.16,3.28-7.17,0-14.17-1.33-20.98-4s-12.76-6.22-17.83-10.69l7.34-14.95c4.63,4.29,9.84,7.65,15.61,10.1,5.77,2.45,11.14,3.67,16.13,3.67s8.74-.93,11.54-2.82,4.2-4.44,4.2-7.67c0-2.62-.85-4.78-2.56-6.49s-3.87-3.08-6.49-4.14c-2.62-1.04-6.21-2.23-10.76-3.54-6.21-1.84-11.28-3.63-15.21-5.37-3.93-1.74-7.3-4.4-10.1-7.93-2.8-3.54-4.19-8.19-4.19-13.96,0-5.33,1.42-9.99,4.26-13.96,2.84-3.98,6.86-7.06,12.06-9.25,5.19-2.18,11.21-3.28,18.03-3.28,5.95,0,11.83.88,17.64,2.62,5.81,1.74,10.99,4.11,15.54,7.08l-7.08,15.35c-4.73-2.89-9.55-5.11-14.5-6.69h-.04Z"/>
    </g>
  </g>
</svg>