<svg xmlns="http://www.w3.org/2000/svg" viewBox="0 0 1200 800"><defs><linearGradient id="g" x1="0" y1="0" x2="1" y2="1"><stop stop-color="#ff8b62"/><stop offset=".52" stop-color="#a94eff"/><stop offset="1" stop-color="#252c72"/></linearGradient><filter id="b"><feGaussianBlur stdDeviation="45"/></filter></defs><rect width="1200" height="800" rx="48" fill="#0d1018"/><circle cx="250" cy="180" r="190" fill="#ff7d91" opacity=".2" filter="url(#b)"/><circle cx="960" cy="630" r="220" fill="#744cff" opacity=".22" filter="url(#b)"/><g transform="translate(120 180)"><rect width="420" height="430" rx="34" fill="#141827" stroke="#fff" stroke-opacity=".18"/><circle cx="110" cy="110" r="58" fill="url(#g)"/><rect x="200" y="58" width="160" height="18" rx="9" fill="#fff" opacity=".85"/><rect x="200" y="95" width="100" height="12" rx="6" fill="#fff" opacity=".35"/><rect x="60" y="215" width="300" height="145" rx="22" fill="url(#g)"/><text x="210" y="292" text-anchor="middle" font-family="Arial" font-size="34" font-weight="700" fill="#fff">BRAND</text></g><g transform="translate(630 135)"><rect x="0" y="35" width="180" height="440" rx="36" fill="#f6f7fb" transform="rotate(-8 90 255)"/><rect x="180" y="0" width="225" height="480" rx="35" fill="#171b29" stroke="#fff" stroke-opacity=".2" transform="rotate(10 292 240)"/><circle cx="290" cy="180" r="70" fill="url(#g)"/><rect x="235" y="290" width="125" height="14" rx="7" fill="#fff" opacity=".9"/><rect x="250" y="325" width="95" height="10" rx="5" fill="#fff" opacity=".35"/></g><g fill="none" stroke="#fff" stroke-opacity=".3"><circle cx="1060" cy="150" r="55"/><rect x="980" y="500" width="110" height="110" rx="24" transform="rotate(18 1035 555)"/></g><text x="70" y="95" font-family="Arial" font-size="22" fill="#fff" opacity=".7">TEMPORARY VISUAL • BRANDING &amp; CREATIVE DESIGN</text></svg>