<svg xmlns="http://www.w3.org/2000/svg" viewBox="0 0 1200 800"><defs><linearGradient id="g" x1="0" y1="0" x2="1" y2="1"><stop stop-color="#35d0e8"/><stop offset="1" stop-color="#315dff"/></linearGradient><filter id="b"><feGaussianBlur stdDeviation="48"/></filter></defs><rect width="1200" height="800" rx="48" fill="#0d1018"/><circle cx="200" cy="630" r="220" fill="#20c9dc" opacity=".16" filter="url(#b)"/><circle cx="1010" cy="150" r="220" fill="#4d5cff" opacity=".2" filter="url(#b)"/><g transform="translate(90 150)"><rect width="740" height="500" rx="34" fill="#151a27" stroke="#fff" stroke-opacity=".18"/><rect width="740" height="68" rx="34" fill="#202638"/><circle cx="34" cy="34" r="8" fill="#ff7373"/><circle cx="62" cy="34" r="8" fill="#ffd45d"/><circle cx="90" cy="34" r="8" fill="#62df8b"/><rect x="40" y="110" width="180" height="320" rx="22" fill="#202638"/><rect x="260" y="110" width="430" height="135" rx="22" fill="url(#g)"/><path d="M300 210 370 175l65 18 90-60 120 25" fill="none" stroke="#fff" stroke-width="8" stroke-linecap="round" stroke-linejoin="round"/><circle cx="300" cy="210" r="8" fill="#fff"/><circle cx="435" cy="193" r="8" fill="#fff"/><circle cx="525" cy="133" r="8" fill="#fff"/><circle cx="645" cy="158" r="8" fill="#fff"/><rect x="260" y="280" width="200" height="150" rx="22" fill="#22293b"/><rect x="490" y="280" width="200" height="150" rx="22" fill="#22293b"/></g><g transform="translate(850 210)"><rect width="250" height="390" rx="36" fill="#f7f8fb"/><rect x="24" y="25" width="202" height="110" rx="20" fill="url(#g)"/><rect x="24" y="165" width="145" height="17" rx="8" fill="#181c27"/><rect x="24" y="205" width="200" height="12" rx="6" fill="#181c27" opacity=".25"/><rect x="24" y="235" width="170" height="12" rx="6" fill="#181c27" opacity=".25"/><rect x="24" y="310" width="202" height="50" rx="15" fill="#151927"/><text x="125" y="342" text-anchor="middle" font-family="Arial" font-size="17" font-weight="700" fill="#fff">BUY NOW</text></g><text x="70" y="95" font-family="Arial" font-size="22" fill="#fff" opacity=".7">TEMPORARY VISUAL • ECOMMERCE &amp; MARKETPLACES</text></svg>