<svg xmlns="http://www.w3.org/2000/svg" viewBox="0 0 1200 800"><defs><linearGradient id="g" x1="0" y1="1" x2="1" y2="0"><stop stop-color="#4f79ff"/><stop offset="1" stop-color="#8cffad"/></linearGradient><filter id="b"><feGaussianBlur stdDeviation="50"/></filter></defs><rect width="1200" height="800" rx="48" fill="#0d1018"/><circle cx="180" cy="160" r="180" fill="#4b72ff" opacity=".17" filter="url(#b)"/><circle cx="980" cy="610" r="240" fill="#74ff9b" opacity=".14" filter="url(#b)"/><g stroke="#fff" stroke-opacity=".14"><path d="M100 650H1100M100 510H1100M100 370H1100M100 230H1100"/><path d="M200 140V650M400 140V650M600 140V650M800 140V650M1000 140V650"/></g><path d="M150 610 330 535 470 565 650 405 790 440 1030 190" fill="none" stroke="url(#g)" stroke-width="18" stroke-linecap="round" stroke-linejoin="round"/><path d="m960 195 82-20-18 83" fill="none" stroke="#8cffad" stroke-width="18" stroke-linecap="round" stroke-linejoin="round"/><g fill="#fff"><circle cx="150" cy="610" r="15"/><circle cx="330" cy="535" r="15"/><circle cx="470" cy="565" r="15"/><circle cx="650" cy="405" r="15"/><circle cx="790" cy="440" r="15"/><circle cx="1030" cy="190" r="15"/></g><g font-family="Arial" font-size="20" fill="#fff"><text x="125" y="690">AUDIT</text><text x="292" y="610">RESEARCH</text><text x="430" y="640">OFFER</text><text x="610" y="480">CHANNELS</text><text x="750" y="515">SALES</text><text x="980" y="150">GROWTH</text></g><text x="70" y="95" font-family="Arial" font-size="22" fill="#fff" opacity=".7">TEMPORARY VISUAL • GO-TO-MARKET STRATEGY</text></svg>