<svg xmlns="http://www.w3.org/2000/svg" viewBox="0 0 1200 800">
<defs><linearGradient id="g" x1="0" y1="0" x2="1" y2="1"><stop stop-color="#704cff"/><stop offset="1" stop-color="#19204b"/></linearGradient><filter id="b"><feGaussianBlur stdDeviation="40"/></filter></defs>
<rect width="1200" height="800" rx="48" fill="#0d1018"/><circle cx="220" cy="180" r="170" fill="#704cff" opacity=".25" filter="url(#b)"/><circle cx="1020" cy="620" r="200" fill="#4b8cff" opacity=".18" filter="url(#b)"/>
<g stroke="#ffffff" stroke-opacity=".16"><path d="M0 120H1200M0 240H1200M0 360H1200M0 480H1200M0 600H1200M0 720H1200"/><path d="M150 0V800M300 0V800M450 0V800M600 0V800M750 0V800M900 0V800M1050 0V800"/></g>
<g transform="translate(155 220)"><rect width="220" height="250" rx="28" fill="url(#g)" stroke="#fff" stroke-opacity=".24"/><path d="M55 80h110M55 120h75M55 160h95" stroke="#fff" stroke-width="12" stroke-linecap="round" opacity=".78"/><text x="110" y="220" text-anchor="middle" font-family="Arial" font-size="20" fill="#fff">PRODUCT IDEA</text></g>
<path d="M395 345H515" stroke="#fff" stroke-width="5" opacity=".55"/><path d="m500 330 20 15-20 15" fill="none" stroke="#fff" stroke-width="5"/>
<g transform="translate(520 190)"><path d="M80 0 240 85v190L80 360-80 275V85Z" fill="#161b2c" stroke="#8a76ff" stroke-width="4"/><path d="M-80 85 80 175 240 85M80 175v185" fill="none" stroke="#fff" stroke-opacity=".35" stroke-width="4"/><circle cx="80" cy="175" r="45" fill="#6f55ff" opacity=".8"/><text x="80" y="185" text-anchor="middle" font-family="Arial" font-size="25" font-weight="700" fill="#fff">BUILD</text></g>
<path d="M780 345H890" stroke="#fff" stroke-width="5" opacity=".55"/><path d="m875 330 20 15-20 15" fill="none" stroke="#fff" stroke-width="5"/>
<g transform="translate(900 235)"><rect width="170" height="220" rx="24" fill="#fafafa"/><rect x="25" y="25" width="120" height="85" rx="16" fill="#684fff"/><rect x="25" y="135" width="95" height="12" rx="6" fill="#141827" opacity=".75"/><rect x="25" y="163" width="70" height="10" rx="5" fill="#141827" opacity=".35"/><text x="85" y="205" text-anchor="middle" font-family="Arial" font-size="18" font-weight="700" fill="#151827">LAUNCH</text></g>
<text x="70" y="95" font-family="Arial" font-size="22" fill="#fff" opacity=".7">TEMPORARY VISUAL • PRODUCT DEVELOPMENT</text></svg>