<?xml version="1.0" encoding="UTF-8"?>
<svg id="Layer_1" xmlns="http://www.w3.org/2000/svg" version="1.1" viewBox="0 0 500 500">
  <!-- Generator: Adobe Illustrator 30.0.0, SVG Export Plug-In . SVG Version: 2.1.1 Build 123)  -->
  <defs>
    <style>
      .st0 {
        fill: #fff;
      }
    </style>
  </defs>
  <path class="st0" d="M203.4,122.29c27.96-1.46,61.76-1.54,89.75-.34,49.48,2.13,81.03,20.59,84.45,73.55,2.01,31.06,1.76,74.84.05,106.03-2.99,54.49-32.88,74.33-84.5,76.5-26.93,1.13-59.15,1.11-86.09,0-49.22-2.02-81.23-20.63-84.49-73.51-2.1-33.99-2.14-75.14.05-109.03,3.29-50.89,32.66-70.7,80.78-73.22ZM214.4,145.29c-42.31,1.6-66.15,7.26-68.84,55.16-1.65,29.46-1.66,69.63,0,99.08,2.41,42.9,22.18,53.76,62.5,55.5,26.19,1.13,57.9,1.13,84.08,0,37.59-1.63,59.73-11.46,62.45-52.55,1.98-29.86,1.92-74.09,0-103.98-1.71-26.52-12.04-46.02-39.76-51.24-26.42-4.97-72.62-3.03-100.43-1.98Z"/>
  <g>
    <path class="st0" d="M315.88,250.02c0,36.34-29.46,65.8-65.8,65.8s-65.8-29.46-65.8-65.8,29.46-65.8,65.8-65.8,65.8,29.46,65.8,65.8ZM292.73,250.02c0-23.55-19.09-42.64-42.64-42.64s-42.64,19.09-42.64,42.64,19.09,42.64,42.64,42.64,42.64-19.09,42.64-42.64Z"/>
    <circle class="st0" cx="318.44" cy="181.66" r="15.37"/>
  </g>
</svg>