<?xml version="1.0" encoding="UTF-8"?>
<svg id="Layer_1" xmlns="http://www.w3.org/2000/svg" version="1.1" viewBox="0 0 500 500">
  <!-- Generator: Adobe Illustrator 30.0.0, SVG Export Plug-In . SVG Version: 2.1.1 Build 123)  -->
  <defs>
    <style>
      .st0 {
        fill: #fff;
      }
    </style>
  </defs>
  <path class="st0" d="M138.36,122.59c9.08-1.52,44.3-1.43,53.68-.15,20.28,2.76,16.86,23.96,18.71,38.29,1.41,10.94,8.09,28.43,6.79,38.04-1.34,9.91-26.63,35.55-26.61,39.08,15.98,31.07,40.28,55.08,71.2,71.21,1.95,0,26.63-20.84,31.16-23.55,12.48-7.45,30.81,1.93,44.98,3.7,15.26,1.9,36.95-1.83,39.36,19.64,1.25,11.14,1.25,39.87,0,51.01-2.53,22.51-28.3,19.08-44.5,17.49-109.61-10.78-199.72-100.89-210.5-210.5-1.49-15.11-4.98-40.79,15.73-44.26Z"/>
</svg>