<?xml version="1.0" encoding="UTF-8"?>
<svg id="Layer_1" xmlns="http://www.w3.org/2000/svg" version="1.1" viewBox="0 0 500 500">
  <!-- Generator: Adobe Illustrator 30.0.0, SVG Export Plug-In . SVG Version: 2.1.1 Build 123)  -->
  <defs>
    <style>
      .st0 {
        fill: #fff;
      }
    </style>
  </defs>
  <path class="st0" d="M130.6,370.11l16.55-61.52c-48.79-87.33,22.22-191.83,121.81-177.34,45.89,6.68,85.78,43.34,96.76,88.24,24.84,101.52-80.98,182.77-172.62,134.03l-62.5,16.59ZM159.6,341.1l36.45-8.96c83.96,53.02,186.63-35.6,143.4-126.39-51.17-107.47-218.92-45.31-183.58,72.58,1.9,6.34,12.51,24.74,12.68,27.33.32,4.95-10.31,34.13-8.95,35.44Z"/>
  <path class="st0" d="M234.94,260.76c4.72,4.68,24.1,18.63,30.2,18.3,4.39-.24,11.27-14.05,14.48-15.49,2.03-.91,3.43.19,5.23.78,2.82.93,23.9,10.92,24.81,12.18,4.32,5.98-2.04,17.8-7.07,22.09-20.5,17.49-54.63-.33-72.48-14.54-15.25-12.14-40.53-41.22-40.6-61.48-.03-8.01,7.12-26.33,15.79-28.29,6.4-1.44,11.93-1.42,15.16,4.41,1.55,2.8,10.02,22.95,10.09,24.98.2,5.74-10.57,13.03-9.81,17.68.5,3.08,11.41,16.61,14.19,19.37Z"/>
</svg>